<?xml version="1.0" encoding="UTF-8" standalone="no"?>
<!-- Created with Inkscape (http://www.inkscape.org/) -->

<svg
   width="32"
   height="32"
   viewBox="0 0 507.93651 507.93651"
   version="1.1"
   id="svg5"
   xml:space="preserve"
   inkscape:version="1.2.2 (b0a8486541, 2022-12-01)"
   sodipodi:docname="logo_small.svg"
   xmlns:inkscape="http://www.inkscape.org/namespaces/inkscape"
   xmlns:sodipodi="http://sodipodi.sourceforge.net/DTD/sodipodi-0.dtd"
   xmlns="http://www.w3.org/2000/svg"
   xmlns:svg="http://www.w3.org/2000/svg"><sodipodi:namedview
     id="namedview7"
     pagecolor="#505050"
     bordercolor="#ffffff"
     borderopacity="1"
     inkscape:showpageshadow="0"
     inkscape:pageopacity="0"
     inkscape:pagecheckerboard="1"
     inkscape:deskcolor="#505050"
     inkscape:document-units="px"
     showgrid="false"
     inkscape:zoom="13.234375"
     inkscape:cx="37.969303"
     inkscape:cy="9.4451004"
     inkscape:window-width="1920"
     inkscape:window-height="1027"
     inkscape:window-x="-8"
     inkscape:window-y="-8"
     inkscape:window-maximized="1"
     inkscape:current-layer="layer1" /><defs
     id="defs2" /><g
     inkscape:label="Layer 1"
     inkscape:groupmode="layer"
     id="layer1"
     transform="translate(-11.322378,-6.1290926)"><g
       id="g941"
       transform="matrix(0.9982782,0,0,1.0000531,8.97352,6.2736468)"
       style="fill:#ffffff;fill-opacity:1;stroke:#ffffff;stroke-width:8.88141;stroke-dasharray:none;stroke-opacity:1"><g
         id="g939"
         transform="translate(-0.42743599)"
         style="fill:#ffffff;fill-opacity:1;stroke:#ffffff;stroke-width:8.88141;stroke-dasharray:none;stroke-opacity:1"><path
           style="fill:#ffffff;fill-opacity:1;stroke:#ffffff;stroke-width:8.88141;stroke-dasharray:none;stroke-opacity:1"
           d="m 259.1384,498.37981 c 2.25958,-0.33998 15.59248,-6.56072 30.37238,-14.17086 38.39821,-19.77115 34.63349,-16.92889 38.97491,-29.42501 4.54764,-13.08972 4.94198,-12.17264 0.57633,1.34033 l -3.22446,9.98069 -7.97846,4.3392 c -4.38815,2.38657 -18.63347,9.85304 -31.65624,16.59217 -18.77963,9.71823 -24.44466,12.22157 -27.38493,12.10122 l -3.70717,-0.15175 z m 73.24666,-55.02006 c -0.15792,-1.38884 10.26175,-34.28513 10.55849,-33.33456 0.1478,0.47344 -2.14523,8.36245 -5.09559,17.53114 -2.95037,9.16868 -5.40868,16.28022 -5.4629,15.80342 z m 10.93377,-35.55206 c -0.12023,-1.62255 7.6909,-24.76258 8.82814,-26.15282 0.55138,-0.67405 5.08765,-14.37721 10.08059,-30.45145 20.40909,-65.70479 25.7527,-82.52913 26.4066,-83.14099 0.37757,-0.35331 0.86921,-0.18773 1.09256,0.36795 15.98069,39.76174 55.06076,131.43679 56.37824,132.25352 1.4721,0.91261 5.59785,-0.86035 23.28062,-10.00438 11.82028,-6.11246 22.77822,-11.90251 24.35097,-12.86677 l 2.85954,-1.75322 V 254.53803 133.01652 l -25.30404,-13.11895 c -13.91723,-7.21543 -25.6803,-12.74032 -26.14017,-12.27755 -0.45987,0.46277 -1.06017,26.68422 -1.33402,58.2699 l -0.49791,57.4285 -18.88839,-52.71312 c -10.38862,-28.99221 -19.64938,-53.84973 -20.57949,-55.23893 -0.9301,-1.38919 -4.02433,-9.11817 -6.87606,-17.175499 -2.85174,-8.057329 -5.63298,-15.217997 -6.18053,-15.912594 -1.60285,-2.033306 -5.54845,-1.475337 -7.14437,1.010323 -0.80274,1.250275 -8.90186,21.36834 -17.99805,44.70681 -32.81803,84.20258 -37.49058,95.9957 -38.40876,96.94054 -0.5799,0.59676 -0.98569,-22.1417 -1.07277,-60.11424 -0.0771,-33.59073 -0.41312,-74.47674 -0.74686,-90.857794 l -0.6068,-29.783735 -6.97071,-3.867555 c -23.46487,-13.019 -54.31137,-28.388271 -58.25523,-29.025672 l -4.48117,-0.724241 3.76455,-0.134992 c 3.05234,-0.109453 9.64623,2.941695 34.85356,16.127561 17.09894,8.944404 31.41822,16.78704 31.82061,17.42808 0.40239,0.64104 0.73848,12.645327 0.74687,26.676195 0.008,14.030867 0.35133,25.502882 0.7621,25.493367 0.41078,-0.0095 13.29414,-3.471407 28.62971,-7.693093 15.33556,-4.221686 29.5592,-7.898424 31.60808,-8.17053 3.60331,-0.478544 3.78489,-0.350765 5.54826,3.904381 1.00268,2.419514 3.8075,10.026303 6.23294,16.903978 2.42542,6.87767 4.99581,12.73308 5.71197,13.01203 0.71615,0.27895 10.34571,-1.45764 21.39904,-3.85909 l 20.09695,-4.36627 25.4043,13.16903 25.4043,13.16904 v 122.58239 122.5824 l -24.2111,12.55672 -24.2111,12.55672 -46.69425,-9.78244 c -25.68184,-5.38035 -47.46204,-9.63135 -48.40044,-9.44669 -1.20587,0.2373 -2.94864,4.03918 -5.94305,12.9648 -2.33027,6.94597 -4.27212,12.1531 -4.31523,11.57139 z"
           id="path925" /><path
           style="fill:#ffffff;fill-opacity:1;stroke:#ffffff;stroke-width:8.88141;stroke-dasharray:none;stroke-opacity:1"
           d="m 220.32778,483.21966 c -16.93985,-8.81529 -31.39163,-16.84908 -32.11506,-17.85286 -1.00623,-1.39613 -1.31534,-7.7155 -1.31534,-26.89002 0,-14.59025 -0.38301,-25.06498 -0.9165,-25.06498 -0.50407,0 -13.6115,3.48753 -29.12761,7.75009 -15.51612,4.26254 -29.54829,7.78605 -31.1826,7.83 -3.65415,0.0983 -4.67635,-1.73446 -11.1322,-19.95909 -2.52632,-7.13172 -5.24161,-13.21915 -6.03399,-13.52764 -0.79237,-0.30849 -10.477179,1.37181 -21.521791,3.73402 L 66.901576,403.5341 42.006181,390.61608 C 28.313713,383.51117 16.78156,377.20905 16.379173,376.61136 15.976785,376.01368 15.640697,321.15132 15.632311,254.69502 15.617945,140.8622 15.717974,133.77711 17.35974,132.34131 c 0.958472,-0.83822 12.038235,-6.84885 24.621693,-13.35693 l 22.879015,-11.83288 21.932696,4.65301 c 58.864596,12.48808 72.802266,15.31627 73.784696,14.97211 0.58597,-0.20527 6.8181,-18.76342 13.84919,-41.24036 7.03108,-22.476934 13.49747,-41.501925 14.36975,-42.277755 2.91539,-2.593047 62.49936,-32.965776 64.6709,-32.965776 1.17755,0 2.14099,0.454645 2.14099,1.010323 0,0.555678 -1.12708,1.010324 -2.50463,1.010324 -1.37754,0 -4.85045,1.308018 -7.71757,2.906706 -2.86712,1.598689 -16.41587,8.678513 -30.10834,15.732945 -13.69247,7.05443 -25.27988,13.206236 -25.74981,13.670679 -0.46992,0.464444 -6.61016,19.340364 -13.64496,41.946491 -7.03481,22.606123 -13.20446,41.629403 -13.71032,42.273963 -0.50587,0.64454 -8.87887,26.85938 -18.60666,58.25518 -9.72779,31.3958 -18.06494,57.50644 -18.52699,58.02364 -1.0748,1.2031 -1.57835,0.0488 -32.255963,-73.93624 -17.589671,-42.42095 -26.124929,-61.88231 -27.140014,-61.88231 -0.814425,0 -11.955411,5.48513 -24.757746,12.18918 l -23.276973,12.18918 v 121.10189 121.10187 l 24.12302,12.62021 c 13.267662,6.9411 24.47059,12.40225 24.895395,12.13589 0.424806,-0.26637 0.772375,-27.50889 0.772375,-60.53893 0,-34.56623 0.377426,-60.05462 0.889274,-60.05462 0.489101,0 1.191378,0.79563 1.560615,1.76806 0.369237,0.97244 9.203781,25.63696 19.63232,54.81005 10.42854,29.17309 19.671177,54.40592 20.539207,56.07296 0.86803,1.66703 4.10189,10.07797 7.18636,18.69098 5.06465,14.14243 5.84951,15.68934 8.09904,15.96272 3.03075,0.3683 1.13543,4.59872 22.31518,-49.80856 33.45385,-85.93742 38.47667,-98.50654 39.36478,-98.50654 0.53414,0 0.96516,25.85156 1.04858,62.89264 0.0779,34.59095 0.41399,76.45349 0.74686,93.02788 l 0.60522,30.13524 11.94979,6.34131 c 28.26984,15.00172 50.12302,25.83281 52.12123,25.83281 1.1829,0 2.15073,0.45464 2.15073,1.01032 0,2.6635 -6.80903,-0.24287 -35.28089,-15.05931 z"
           id="path927" /><path
           style="fill:#ffffff;fill-opacity:1;stroke:#ffffff;stroke-width:8.88141;stroke-dasharray:none;stroke-opacity:1"
           d="m 261.66655,497.898 c 1.01851,-0.93518 8.87936,-4.65921 8.87936,-4.20656 0,0.57431 -7.51528,4.58753 -8.59074,4.58753 -0.38695,0 -0.51683,-0.17144 -0.28862,-0.38097 z m 15.85007,-8.09869 c 0,-0.21839 0.69545,-0.66782 1.54544,-0.99875 0.8862,-0.34502 1.28592,-0.17565 0.93705,0.39707 -0.58481,0.96002 -2.48249,1.41996 -2.48249,0.60168 z m 12.68005,-6.80056 c 0.6755,-0.69048 1.47902,-1.0009 1.78563,-0.68983 0.3066,0.31107 -0.24608,0.876 -1.22817,1.25541 -1.41924,0.54828 -1.53362,0.43223 -0.55746,-0.56558 z m 9.22789,-4.40081 c 0,-0.27784 4.03306,-2.56019 8.96235,-5.0719 4.92929,-2.5117 8.96234,-4.33941 8.96234,-4.06157 0,0.27784 -4.03305,2.56019 -8.96234,5.0719 -4.92929,2.5117 -8.96235,4.33941 -8.96235,4.06157 z m 22.90377,-12.02046 c 0,-0.20979 0.7842,-1.00542 1.74268,-1.76806 1.57942,-1.25671 1.61464,-1.22098 0.37598,0.38146 -1.30091,1.68294 -2.11866,2.21814 -2.11866,1.3866 z m 9.04096,-23.44533 c 0.0478,-1.17698 0.28375,-1.41637 0.60163,-0.61041 0.28766,0.72932 0.25229,1.60074 -0.0786,1.93646 -0.3309,0.33572 -0.56626,-0.26101 -0.52302,-1.32605 z m 4.97908,-16.16518 c 0.0478,-1.17697 0.28375,-1.41637 0.60163,-0.6104 0.28766,0.72932 0.25229,1.60073 -0.0786,1.93645 -0.3309,0.33572 -0.56626,-0.261 -0.52302,-1.32605 z m 5.97489,-19.19614 c 0.0478,-1.17698 0.28375,-1.41637 0.60164,-0.61041 0.28766,0.72932 0.25229,1.60074 -0.0786,1.93646 -0.3309,0.33572 -0.56626,-0.26101 -0.52303,-1.32605 z m 102.10912,-8.75614 c -0.78266,-1.25028 -13.3867,-31.14322 -28.00897,-66.42877 -14.62228,-35.28555 -26.76358,-64.34498 -26.98069,-64.57651 -0.867,-0.92462 -1.804,1.68434 -9.81607,27.33175 -4.57655,14.65 -12.36457,39.59376 -17.30672,55.43058 -4.94215,15.83682 -9.96065,30.6128 -11.15221,32.83551 -2.59102,4.8332 -2.33094,3.84254 3.44811,-13.1342 2.45906,-7.22381 10.79905,-33.59326 18.53331,-58.59876 7.73426,-25.00551 14.46806,-45.88889 14.96398,-46.40752 0.49592,-0.51864 1.13669,-0.70454 1.42392,-0.41312 0.28725,0.29142 12.83948,30.26772 27.89387,66.614 15.05438,36.34627 27.82603,66.87976 28.38144,67.8522 1.48255,2.59573 0.28725,2.15817 -1.37997,-0.50516 z m 14.32271,-3.26328 c 0,-0.27784 4.03306,-2.56019 8.96235,-5.07189 4.92928,-2.51171 8.96234,-4.33941 8.96234,-4.06157 0,0.27784 -4.03306,2.56019 -8.96234,5.07189 -4.92929,2.51171 -8.96235,4.33941 -8.96235,4.06157 z m 24.8954,-13.04638 c 0,-0.2184 0.69545,-0.66783 1.54544,-0.99876 0.8862,-0.34502 1.28592,-0.17564 0.93705,0.39707 -0.58481,0.96002 -2.48249,1.41996 -2.48249,0.60169 z m 9.95816,-5.03601 c 0,-0.2098 0.7842,-1.00543 1.74267,-1.76807 1.57943,-1.25671 1.61465,-1.22097 0.37598,0.38146 -1.3009,1.68295 -2.11865,2.21814 -2.11865,1.38661 z m -168.05499,-214.0597 0.23789,-66.933934 0.50897,64.660704 0.50898,64.6607 2.10123,-4.55297 c 1.15568,-2.50413 7.14035,-17.50743 13.29926,-33.34068 42.14984,-108.358171 41.6271,-107.087768 44.06383,-107.087768 0.67253,0 0.50285,0.532732 -0.40222,1.262905 -0.86098,0.694597 -9.25937,21.039983 -18.66309,45.211973 -33.62232,86.42521 -40.2482,103.053 -41.06478,103.053 -0.45537,0 -0.7209,-30.12027 -0.59007,-66.93393 z m 117.36818,62.64005 c -0.4657,-1.25027 -9.45956,-26.36944 -19.98636,-55.82037 -10.52681,-29.45093 -19.54515,-53.97906 -20.04076,-54.50695 -0.49562,-0.5279 -0.90113,-1.38484 -0.90113,-1.90432 0,-4.38232 6.32532,11.56175 22.4494,56.58757 l 18.87696,52.71312 0.51832,-57.76474 c 0.28507,-31.7706 0.62116,-57.8784 0.74686,-58.01732 0.12569,-0.13892 1.01275,-0.21668 1.97122,-0.17281 1.04107,0.0477 1.24152,0.28492 0.49791,0.58935 -0.97622,0.39965 -1.24477,13.46093 -1.24477,60.53964 0,58.1609 -0.32392,64.63977 -2.88765,57.75683 z m 35.74957,-101.79009 c -1.91695,-1.06477 -3.12701,-1.955 -2.68904,-1.97829 1.05526,-0.0562 6.6723,2.90693 6.6723,3.51972 0,0.66127 -0.0582,0.63872 -3.98326,-1.54143 z m -10.20711,-5.12041 c -2.05387,-1.10007 -3.73431,-2.22582 -3.73431,-2.50168 0,-0.27586 1.79247,0.4262 3.98326,1.56015 2.1908,1.13395 3.98326,2.2798 3.98326,2.54634 0,0.66092 -0.007,0.65828 -4.23221,-1.60481 z m -12.25737,-6.55405 c -1.82265,-1.48151 -1.79088,-1.50254 0.55653,-0.3683 3.04822,1.47286 3.61316,1.93953 2.34794,1.93953 -0.53431,0 -1.84132,-0.70705 -2.90447,-1.57123 z m -55.58404,-2.00396 c -0.96094,-2.54065 -0.67746,-3.19621 0.49645,-1.14808 0.58124,1.01412 0.84704,2.05668 0.59064,2.31681 -0.25639,0.26013 -0.74558,-0.26581 -1.08709,-1.16873 z m -3.98326,-11.113561 c -0.96094,-2.540655 -0.67746,-3.196214 0.49644,-1.148069 0.58125,1.014113 0.84704,2.05667 0.59065,2.3168 -0.25639,0.26013 -0.74559,-0.2658 -1.08709,-1.168731 z m -72.0886,-28.805678 c -0.16848,-18.821525 -0.56632,-26.210584 -1.46873,-27.278734 -0.82673,-0.978575 -0.6556,-0.943924 0.51542,0.104366 1.60184,1.433947 1.72855,3.787286 1.46873,27.278734 l -0.28435,25.709399 z m 68.10534,17.692119 c -0.96095,-2.540654 -0.67747,-3.196214 0.49644,-1.148069 0.58125,1.014114 0.84704,2.056674 0.59065,2.316801 -0.2564,0.260127 -0.74559,-0.265803 -1.08709,-1.168732 z m -2.5126,-5.816249 c -1.25962,-2.128054 -1.2384,-2.149583 0.47633,-0.48327 0.98708,0.959206 1.58034,1.961482 1.31836,2.22728 -0.26198,0.265798 -1.06958,-0.519007 -1.79469,-1.74401 z M 305.15051,34.477759 c -4.24467,-2.201658 -7.71758,-4.22991 -7.71758,-4.507226 0,-0.277315 3.58494,1.32452 7.96653,3.559636 4.38159,2.235115 7.96653,4.286094 7.96653,4.557732 0,0.680673 0.3727,0.844452 -8.21548,-3.610142 z M 272.53754,17.364993 c -1.91695,-1.064773 -3.12701,-1.955007 -2.68904,-1.978298 1.05526,-0.05612 6.6723,2.906941 6.6723,3.519728 0,0.661266 -0.0582,0.638712 -3.98326,-1.54143 z m -7.96653,-4.041294 c -1.91694,-1.064773 -3.12701,-1.955007 -2.68904,-1.978299 1.05527,-0.05612 6.67231,2.906942 6.67231,3.51973 0,0.661265 -0.0583,0.638711 -3.98327,-1.541431 z"
           id="path929" /><path
           style="fill:#ffffff;fill-opacity:1;stroke:#ffffff;stroke-width:8.88141;stroke-dasharray:none;stroke-opacity:1"
           d="m 257.60101,497.52123 c 3.8e-4,-0.41676 1.04986,-0.81884 2.33217,-0.89351 1.28231,-0.0747 16.17488,-7.34899 33.09459,-16.16518 l 30.76313,-16.02941 12.67373,-40.41294 c 6.97056,-22.22711 21.15429,-67.46435 31.51939,-100.52718 15.66267,-49.96106 19.14664,-60.11425 20.62771,-60.11425 1.28217,0 2.8201,2.40892 5.48269,8.58775 4.19375,9.73203 50.17417,120.66303 51.68101,124.68407 0.53931,1.43918 1.57581,2.61669 2.30331,2.61669 0.72752,0 11.60544,-5.34209 24.17318,-11.8713 l 22.85045,-11.8713 V 254.82756 134.13046 l -22.90376,-11.94341 c -12.59707,-6.56888 -23.35188,-12.04107 -23.89958,-12.16043 -0.65098,-0.14188 -1.16823,20.94972 -1.49373,60.90754 -0.41331,50.73917 -0.72895,61.12457 -1.85779,61.12457 -0.89149,0 -8.48396,-19.83557 -22.04315,-57.58844 -27.4464,-76.41907 -32.70035,-90.665532 -33.87663,-91.858947 -0.65584,-0.665397 -1.44877,-0.507506 -2.35018,0.467976 -0.74822,0.809702 -8.87545,20.794621 -18.06052,44.410931 -12.85583,33.05447 -36.67041,93.9104 -41.01932,104.82106 -0.27686,0.6946 -1.12761,1.26291 -1.89057,1.26291 -1.16868,0 -1.38718,-8.64716 -1.38718,-54.89716 0,-30.19345 -0.29671,-72.6937 -0.65937,-94.44502 l -0.65937,-39.547852 -4.56866,-2.41325 C 286.15855,25.223223 260.12595,12.276979 259.00085,12.715013 c -0.77031,0.299898 -1.40055,0.104892 -1.40055,-0.433346 0,-0.538238 0.74484,-0.978615 1.6552,-0.978615 1.82288,0 61.78287,30.77952 63.88442,32.794066 1.05506,1.01137 1.42459,19.247434 1.90182,93.850712 0.32578,50.92747 0.89328,92.59542 1.26113,92.59542 0.65299,0 5.62971,-12.5219 41.10068,-103.41319 10.98585,-28.150312 17.94238,-44.678542 19.0754,-45.32185 2.81292,-1.597125 4.11272,0.553477 9.61829,15.914119 2.7811,7.759351 5.79989,15.699171 6.70841,17.644041 0.90851,1.94487 10.4355,28.0625 21.17108,58.03917 10.73559,29.97668 20.03978,54.67909 20.676,54.89424 0.86984,0.29418 1.15676,-14.54018 1.15676,-59.80724 0,-36.41039 0.36572,-60.19843 0.92551,-60.19843 1.48864,0 48.2941,24.48336 49.09899,25.68307 0.40238,0.59977 0.73847,55.0092 0.74686,120.90982 0.0143,112.87323 -0.0857,119.90728 -1.72743,121.33646 -3.82529,3.33019 -47.38753,25.12847 -48.32223,24.18015 -0.52582,-0.53347 -7.32477,-16.35166 -15.1088,-35.15156 -36.43276,-87.99192 -41.73865,-100.40475 -42.77126,-100.06091 -0.60327,0.20088 -7.43596,20.78897 -15.18374,45.75132 -7.74778,24.96233 -16.15034,51.52378 -18.67235,59.02543 -2.52202,7.50165 -10.22031,31.59786 -17.1073,53.54714 -6.887,21.94928 -13.2723,40.65736 -14.18957,41.57351 -2.23696,2.23425 -62.16637,33.19043 -64.25478,33.19043 -0.90371,0 -1.64277,-0.34098 -1.64238,-0.75774 z"
           id="path931" /><path
           style="fill:#ffffff;fill-opacity:1;stroke:#ffffff;stroke-width:8.88141;stroke-dasharray:none;stroke-opacity:1"
           d="m 244.6547,494.06202 c -3.01235,-1.59883 -16.67992,-8.73769 -30.37239,-15.86416 l -24.89539,-12.95722 -0.60522,-30.20829 c -0.33287,-16.61457 -0.66896,-58.50999 -0.74686,-93.10094 -0.0834,-37.04108 -0.51444,-62.89264 -1.04858,-62.89264 -0.88811,0 -5.91093,12.56912 -39.36478,98.50654 -21.17975,54.40728 -19.28443,50.17686 -22.31518,49.80856 -2.24953,-0.27338 -3.03439,-1.82029 -8.09904,-15.96272 -3.08447,-8.61301 -6.31833,-17.02395 -7.18636,-18.69098 C 109.15287,391.03313 99.910233,365.8003 89.481693,336.62721 79.053154,307.45412 70.21861,282.7896 69.849373,281.81716 c -0.369237,-0.97243 -1.071514,-1.76806 -1.560615,-1.76806 -0.511848,0 -0.889274,25.48839 -0.889274,60.05462 0,33.03004 -0.347569,60.27256 -0.772375,60.53893 -0.424805,0.26636 -11.627733,-5.19479 -24.895395,-12.13589 L 17.608694,375.88655 V 254.78468 133.68279 l 23.276973,-12.18918 c 12.802335,-6.70405 23.943321,-12.18918 24.757746,-12.18918 1.015085,0 9.550343,19.46136 27.140014,61.88231 30.677613,73.98508 31.181163,75.13934 32.255963,73.93624 0.46205,-0.5172 8.7992,-26.62784 18.52699,-58.02364 9.72779,-31.3958 18.10079,-57.61064 18.60666,-58.25518 0.50586,-0.64456 6.67551,-19.66784 13.71032,-42.273963 7.0348,-22.606127 13.17504,-41.482047 13.64496,-41.946491 0.46993,-0.464443 12.05734,-6.616249 25.74981,-13.670679 13.69247,-7.054432 27.24122,-14.134256 30.10834,-15.732945 2.86712,-1.598688 6.34003,-2.906706 7.71757,-2.906706 h 2.50463 V 254.79101 497.26865 l -2.73849,-0.14984 c -1.50618,-0.0824 -5.20314,-1.45797 -8.21548,-3.05679 z"
           id="path933" /><path
           style="fill:#ffffff;fill-opacity:1;stroke:#ffffff;stroke-width:8.88141;stroke-dasharray:none;stroke-opacity:1"
           d="m 255.60867,254.79101 c 0,-160.978207 0.3347,-242.477634 0.99582,-242.477634 0.66111,0 0.99581,81.499427 0.99581,242.477634 0,160.97821 -0.3347,242.47764 -0.99581,242.47764 -0.66112,0 -0.99582,-81.49943 -0.99582,-242.47764 z"
           id="path935" /><path
           style="fill:#ffffff;fill-opacity:1;stroke:#ffffff;stroke-width:8.88141;stroke-dasharray:none;stroke-opacity:1"
           d="m 258.27514,496.60621 c -1.23537,-1.25336 -0.80048,-483.084473 0.43671,-483.860241 1.03147,-0.646769 13.28802,5.338633 49.76183,24.300837 l 14.52612,7.551912 0.66007,39.590588 c 0.36306,21.774824 0.66009,64.294304 0.66009,94.487754 0,46.25 0.2185,54.89716 1.38718,54.89716 0.76296,0 1.61371,-0.56831 1.89057,-1.26291 4.34891,-10.91066 28.16349,-71.76659 41.01932,-104.82106 9.18507,-23.61631 17.3123,-43.601229 18.06052,-44.410931 2.57613,-2.787824 0.72131,-7.467068 36.22681,91.390971 13.55919,37.75287 21.15166,57.58844 22.04315,57.58844 1.12884,0 1.44448,-10.3854 1.85779,-61.12457 0.3255,-39.95782 0.84275,-61.04942 1.49373,-60.90754 0.5477,0.11936 11.30251,5.59155 23.89958,12.16043 l 22.90376,11.94341 v 120.6971 120.69711 l -22.85045,11.8713 c -12.56774,6.52921 -23.44566,11.8713 -24.17318,11.8713 -0.7275,0 -1.764,-1.17751 -2.30331,-2.61669 -1.50684,-4.02104 -47.48726,-114.95204 -51.68101,-124.68407 -2.66259,-6.17883 -4.20052,-8.58775 -5.48269,-8.58775 -1.48107,0 -4.96504,10.15319 -20.62771,60.11425 -10.3651,33.06283 -24.54883,78.30007 -31.51939,100.52718 l -12.67373,40.41294 -30.3568,15.78938 c -31.30284,16.28143 -34.01436,17.54497 -35.15896,16.3837 z"
           id="path937" /></g></g><g
       id="g923"
       transform="translate(8.3956448,5.9968891)"><g
         id="g895"
         transform="translate(-0.42743599)"><path
           style="fill:#8de6ad;stroke-width:1.00304"
           d="m 259.1384,498.37981 c 2.25958,-0.33998 15.59248,-6.56072 30.37238,-14.17086 38.39821,-19.77115 34.63349,-16.92889 38.97491,-29.42501 4.54764,-13.08972 4.94198,-12.17264 0.57633,1.34033 l -3.22446,9.98069 -7.97846,4.3392 c -4.38815,2.38657 -18.63347,9.85304 -31.65624,16.59217 -18.77963,9.71823 -24.44466,12.22157 -27.38493,12.10122 l -3.70717,-0.15175 z m 73.24666,-55.02006 c -0.15792,-1.38884 10.26175,-34.28513 10.55849,-33.33456 0.1478,0.47344 -2.14523,8.36245 -5.09559,17.53114 -2.95037,9.16868 -5.40868,16.28022 -5.4629,15.80342 z m 10.93377,-35.55206 c -0.12023,-1.62255 7.6909,-24.76258 8.82814,-26.15282 0.55138,-0.67405 5.08765,-14.37721 10.08059,-30.45145 20.40909,-65.70479 25.7527,-82.52913 26.4066,-83.14099 0.37757,-0.35331 0.86921,-0.18773 1.09256,0.36795 15.98069,39.76174 55.06076,131.43679 56.37824,132.25352 1.4721,0.91261 5.59785,-0.86035 23.28062,-10.00438 11.82028,-6.11246 22.77822,-11.90251 24.35097,-12.86677 l 2.85954,-1.75322 V 254.53803 133.01652 l -25.30404,-13.11895 c -13.91723,-7.21543 -25.6803,-12.74032 -26.14017,-12.27755 -0.45987,0.46277 -1.06017,26.68422 -1.33402,58.2699 l -0.49791,57.4285 -18.88839,-52.71312 c -10.38862,-28.99221 -19.64938,-53.84973 -20.57949,-55.23893 -0.9301,-1.38919 -4.02433,-9.11817 -6.87606,-17.175499 -2.85174,-8.057329 -5.63298,-15.217997 -6.18053,-15.912594 -1.60285,-2.033306 -5.54845,-1.475337 -7.14437,1.010323 -0.80274,1.250275 -8.90186,21.36834 -17.99805,44.70681 -32.81803,84.20258 -37.49058,95.9957 -38.40876,96.94054 -0.5799,0.59676 -0.98569,-22.1417 -1.07277,-60.11424 -0.0771,-33.59073 -0.41312,-74.47674 -0.74686,-90.857794 l -0.6068,-29.783735 -6.97071,-3.867555 c -23.46487,-13.019 -54.31137,-28.388271 -58.25523,-29.025672 l -4.48117,-0.724241 3.76455,-0.134992 c 3.05234,-0.109453 9.64623,2.941695 34.85356,16.127561 17.09894,8.944404 31.41822,16.78704 31.82061,17.42808 0.40239,0.64104 0.73848,12.645327 0.74687,26.676195 0.008,14.030867 0.35133,25.502882 0.7621,25.493367 0.41078,-0.0095 13.29414,-3.471407 28.62971,-7.693093 15.33556,-4.221686 29.5592,-7.898424 31.60808,-8.17053 3.60331,-0.478544 3.78489,-0.350765 5.54826,3.904381 1.00268,2.419514 3.8075,10.026303 6.23294,16.903978 2.42542,6.87767 4.99581,12.73308 5.71197,13.01203 0.71615,0.27895 10.34571,-1.45764 21.39904,-3.85909 l 20.09695,-4.36627 25.4043,13.16903 25.4043,13.16904 v 122.58239 122.5824 l -24.2111,12.55672 -24.2111,12.55672 -46.69425,-9.78244 c -25.68184,-5.38035 -47.46204,-9.63135 -48.40044,-9.44669 -1.20587,0.2373 -2.94864,4.03918 -5.94305,12.9648 -2.33027,6.94597 -4.27212,12.1531 -4.31523,11.57139 z"
           id="path909" /><path
           style="fill:#76a8f9;stroke-width:1.00304"
           d="m 220.32778,483.21966 c -16.93985,-8.81529 -31.39163,-16.84908 -32.11506,-17.85286 -1.00623,-1.39613 -1.31534,-7.7155 -1.31534,-26.89002 0,-14.59025 -0.38301,-25.06498 -0.9165,-25.06498 -0.50407,0 -13.6115,3.48753 -29.12761,7.75009 -15.51612,4.26254 -29.54829,7.78605 -31.1826,7.83 -3.65415,0.0983 -4.67635,-1.73446 -11.1322,-19.95909 -2.52632,-7.13172 -5.24161,-13.21915 -6.03399,-13.52764 -0.79237,-0.30849 -10.477179,1.37181 -21.521791,3.73402 L 66.901576,403.5341 42.006181,390.61608 C 28.313713,383.51117 16.78156,377.20905 16.379173,376.61136 15.976785,376.01368 15.640697,321.15132 15.632311,254.69502 15.617945,140.8622 15.717974,133.77711 17.35974,132.34131 c 0.958472,-0.83822 12.038235,-6.84885 24.621693,-13.35693 l 22.879015,-11.83288 21.932696,4.65301 c 58.864596,12.48808 72.802266,15.31627 73.784696,14.97211 0.58597,-0.20527 6.8181,-18.76342 13.84919,-41.24036 7.03108,-22.476934 13.49747,-41.501925 14.36975,-42.277755 2.91539,-2.593047 62.49936,-32.965776 64.6709,-32.965776 1.17755,0 2.14099,0.454645 2.14099,1.010323 0,0.555678 -1.12708,1.010324 -2.50463,1.010324 -1.37754,0 -4.85045,1.308018 -7.71757,2.906706 -2.86712,1.598689 -16.41587,8.678513 -30.10834,15.732945 -13.69247,7.05443 -25.27988,13.206236 -25.74981,13.670679 -0.46992,0.464444 -6.61016,19.340364 -13.64496,41.946491 -7.03481,22.606123 -13.20446,41.629403 -13.71032,42.273963 -0.50587,0.64454 -8.87887,26.85938 -18.60666,58.25518 -9.72779,31.3958 -18.06494,57.50644 -18.52699,58.02364 -1.0748,1.2031 -1.57835,0.0488 -32.255963,-73.93624 -17.589671,-42.42095 -26.124929,-61.88231 -27.140014,-61.88231 -0.814425,0 -11.955411,5.48513 -24.757746,12.18918 l -23.276973,12.18918 v 121.10189 121.10187 l 24.12302,12.62021 c 13.267662,6.9411 24.47059,12.40225 24.895395,12.13589 0.424806,-0.26637 0.772375,-27.50889 0.772375,-60.53893 0,-34.56623 0.377426,-60.05462 0.889274,-60.05462 0.489101,0 1.191378,0.79563 1.560615,1.76806 0.369237,0.97244 9.203781,25.63696 19.63232,54.81005 10.42854,29.17309 19.671177,54.40592 20.539207,56.07296 0.86803,1.66703 4.10189,10.07797 7.18636,18.69098 5.06465,14.14243 5.84951,15.68934 8.09904,15.96272 3.03075,0.3683 1.13543,4.59872 22.31518,-49.80856 33.45385,-85.93742 38.47667,-98.50654 39.36478,-98.50654 0.53414,0 0.96516,25.85156 1.04858,62.89264 0.0779,34.59095 0.41399,76.45349 0.74686,93.02788 l 0.60522,30.13524 11.94979,6.34131 c 28.26984,15.00172 50.12302,25.83281 52.12123,25.83281 1.1829,0 2.15073,0.45464 2.15073,1.01032 0,2.6635 -6.80903,-0.24287 -35.28089,-15.05931 z"
           id="path907" /><path
           style="fill:#72cc94;stroke-width:1.00304"
           d="m 261.66655,497.898 c 1.01851,-0.93518 8.87936,-4.65921 8.87936,-4.20656 0,0.57431 -7.51528,4.58753 -8.59074,4.58753 -0.38695,0 -0.51683,-0.17144 -0.28862,-0.38097 z m 15.85007,-8.09869 c 0,-0.21839 0.69545,-0.66782 1.54544,-0.99875 0.8862,-0.34502 1.28592,-0.17565 0.93705,0.39707 -0.58481,0.96002 -2.48249,1.41996 -2.48249,0.60168 z m 12.68005,-6.80056 c 0.6755,-0.69048 1.47902,-1.0009 1.78563,-0.68983 0.3066,0.31107 -0.24608,0.876 -1.22817,1.25541 -1.41924,0.54828 -1.53362,0.43223 -0.55746,-0.56558 z m 9.22789,-4.40081 c 0,-0.27784 4.03306,-2.56019 8.96235,-5.0719 4.92929,-2.5117 8.96234,-4.33941 8.96234,-4.06157 0,0.27784 -4.03305,2.56019 -8.96234,5.0719 -4.92929,2.5117 -8.96235,4.33941 -8.96235,4.06157 z m 22.90377,-12.02046 c 0,-0.20979 0.7842,-1.00542 1.74268,-1.76806 1.57942,-1.25671 1.61464,-1.22098 0.37598,0.38146 -1.30091,1.68294 -2.11866,2.21814 -2.11866,1.3866 z m 9.04096,-23.44533 c 0.0478,-1.17698 0.28375,-1.41637 0.60163,-0.61041 0.28766,0.72932 0.25229,1.60074 -0.0786,1.93646 -0.3309,0.33572 -0.56626,-0.26101 -0.52302,-1.32605 z m 4.97908,-16.16518 c 0.0478,-1.17697 0.28375,-1.41637 0.60163,-0.6104 0.28766,0.72932 0.25229,1.60073 -0.0786,1.93645 -0.3309,0.33572 -0.56626,-0.261 -0.52302,-1.32605 z m 5.97489,-19.19614 c 0.0478,-1.17698 0.28375,-1.41637 0.60164,-0.61041 0.28766,0.72932 0.25229,1.60074 -0.0786,1.93646 -0.3309,0.33572 -0.56626,-0.26101 -0.52303,-1.32605 z m 102.10912,-8.75614 c -0.78266,-1.25028 -13.3867,-31.14322 -28.00897,-66.42877 -14.62228,-35.28555 -26.76358,-64.34498 -26.98069,-64.57651 -0.867,-0.92462 -1.804,1.68434 -9.81607,27.33175 -4.57655,14.65 -12.36457,39.59376 -17.30672,55.43058 -4.94215,15.83682 -9.96065,30.6128 -11.15221,32.83551 -2.59102,4.8332 -2.33094,3.84254 3.44811,-13.1342 2.45906,-7.22381 10.79905,-33.59326 18.53331,-58.59876 7.73426,-25.00551 14.46806,-45.88889 14.96398,-46.40752 0.49592,-0.51864 1.13669,-0.70454 1.42392,-0.41312 0.28725,0.29142 12.83948,30.26772 27.89387,66.614 15.05438,36.34627 27.82603,66.87976 28.38144,67.8522 1.48255,2.59573 0.28725,2.15817 -1.37997,-0.50516 z m 14.32271,-3.26328 c 0,-0.27784 4.03306,-2.56019 8.96235,-5.07189 4.92928,-2.51171 8.96234,-4.33941 8.96234,-4.06157 0,0.27784 -4.03306,2.56019 -8.96234,5.07189 -4.92929,2.51171 -8.96235,4.33941 -8.96235,4.06157 z m 24.8954,-13.04638 c 0,-0.2184 0.69545,-0.66783 1.54544,-0.99876 0.8862,-0.34502 1.28592,-0.17564 0.93705,0.39707 -0.58481,0.96002 -2.48249,1.41996 -2.48249,0.60169 z m 9.95816,-5.03601 c 0,-0.2098 0.7842,-1.00543 1.74267,-1.76807 1.57943,-1.25671 1.61465,-1.22097 0.37598,0.38146 -1.3009,1.68295 -2.11865,2.21814 -2.11865,1.38661 z m -168.05499,-214.0597 0.23789,-66.933934 0.50897,64.660704 0.50898,64.6607 2.10123,-4.55297 c 1.15568,-2.50413 7.14035,-17.50743 13.29926,-33.34068 42.14984,-108.358171 41.6271,-107.087768 44.06383,-107.087768 0.67253,0 0.50285,0.532732 -0.40222,1.262905 -0.86098,0.694597 -9.25937,21.039983 -18.66309,45.211973 -33.62232,86.42521 -40.2482,103.053 -41.06478,103.053 -0.45537,0 -0.7209,-30.12027 -0.59007,-66.93393 z m 117.36818,62.64005 c -0.4657,-1.25027 -9.45956,-26.36944 -19.98636,-55.82037 -10.52681,-29.45093 -19.54515,-53.97906 -20.04076,-54.50695 -0.49562,-0.5279 -0.90113,-1.38484 -0.90113,-1.90432 0,-4.38232 6.32532,11.56175 22.4494,56.58757 l 18.87696,52.71312 0.51832,-57.76474 c 0.28507,-31.7706 0.62116,-57.8784 0.74686,-58.01732 0.12569,-0.13892 1.01275,-0.21668 1.97122,-0.17281 1.04107,0.0477 1.24152,0.28492 0.49791,0.58935 -0.97622,0.39965 -1.24477,13.46093 -1.24477,60.53964 0,58.1609 -0.32392,64.63977 -2.88765,57.75683 z m 35.74957,-101.79009 c -1.91695,-1.06477 -3.12701,-1.955 -2.68904,-1.97829 1.05526,-0.0562 6.6723,2.90693 6.6723,3.51972 0,0.66127 -0.0582,0.63872 -3.98326,-1.54143 z m -10.20711,-5.12041 c -2.05387,-1.10007 -3.73431,-2.22582 -3.73431,-2.50168 0,-0.27586 1.79247,0.4262 3.98326,1.56015 2.1908,1.13395 3.98326,2.2798 3.98326,2.54634 0,0.66092 -0.007,0.65828 -4.23221,-1.60481 z m -12.25737,-6.55405 c -1.82265,-1.48151 -1.79088,-1.50254 0.55653,-0.3683 3.04822,1.47286 3.61316,1.93953 2.34794,1.93953 -0.53431,0 -1.84132,-0.70705 -2.90447,-1.57123 z m -55.58404,-2.00396 c -0.96094,-2.54065 -0.67746,-3.19621 0.49645,-1.14808 0.58124,1.01412 0.84704,2.05668 0.59064,2.31681 -0.25639,0.26013 -0.74558,-0.26581 -1.08709,-1.16873 z m -3.98326,-11.113561 c -0.96094,-2.540655 -0.67746,-3.196214 0.49644,-1.148069 0.58125,1.014113 0.84704,2.05667 0.59065,2.3168 -0.25639,0.26013 -0.74559,-0.2658 -1.08709,-1.168731 z m -72.0886,-28.805678 c -0.16848,-18.821525 -0.56632,-26.210584 -1.46873,-27.278734 -0.82673,-0.978575 -0.6556,-0.943924 0.51542,0.104366 1.60184,1.433947 1.72855,3.787286 1.46873,27.278734 l -0.28435,25.709399 z m 68.10534,17.692119 c -0.96095,-2.540654 -0.67747,-3.196214 0.49644,-1.148069 0.58125,1.014114 0.84704,2.056674 0.59065,2.316801 -0.2564,0.260127 -0.74559,-0.265803 -1.08709,-1.168732 z m -2.5126,-5.816249 c -1.25962,-2.128054 -1.2384,-2.149583 0.47633,-0.48327 0.98708,0.959206 1.58034,1.961482 1.31836,2.22728 -0.26198,0.265798 -1.06958,-0.519007 -1.79469,-1.74401 z M 305.15051,34.477759 c -4.24467,-2.201658 -7.71758,-4.22991 -7.71758,-4.507226 0,-0.277315 3.58494,1.32452 7.96653,3.559636 4.38159,2.235115 7.96653,4.286094 7.96653,4.557732 0,0.680673 0.3727,0.844452 -8.21548,-3.610142 z M 272.53754,17.364993 c -1.91695,-1.064773 -3.12701,-1.955007 -2.68904,-1.978298 1.05526,-0.05612 6.6723,2.906941 6.6723,3.519728 0,0.661266 -0.0582,0.638712 -3.98326,-1.54143 z m -7.96653,-4.041294 c -1.91694,-1.064773 -3.12701,-1.955007 -2.68904,-1.978299 1.05527,-0.05612 6.67231,2.906942 6.67231,3.51973 0,0.661265 -0.0583,0.638711 -3.98327,-1.541431 z"
           id="path905" /><path
           style="fill:#4da371;stroke-width:1.00304"
           d="m 257.60101,497.52123 c 3.8e-4,-0.41676 1.04986,-0.81884 2.33217,-0.89351 1.28231,-0.0747 16.17488,-7.34899 33.09459,-16.16518 l 30.76313,-16.02941 12.67373,-40.41294 c 6.97056,-22.22711 21.15429,-67.46435 31.51939,-100.52718 15.66267,-49.96106 19.14664,-60.11425 20.62771,-60.11425 1.28217,0 2.8201,2.40892 5.48269,8.58775 4.19375,9.73203 50.17417,120.66303 51.68101,124.68407 0.53931,1.43918 1.57581,2.61669 2.30331,2.61669 0.72752,0 11.60544,-5.34209 24.17318,-11.8713 l 22.85045,-11.8713 V 254.82756 134.13046 l -22.90376,-11.94341 c -12.59707,-6.56888 -23.35188,-12.04107 -23.89958,-12.16043 -0.65098,-0.14188 -1.16823,20.94972 -1.49373,60.90754 -0.41331,50.73917 -0.72895,61.12457 -1.85779,61.12457 -0.89149,0 -8.48396,-19.83557 -22.04315,-57.58844 -27.4464,-76.41907 -32.70035,-90.665532 -33.87663,-91.858947 -0.65584,-0.665397 -1.44877,-0.507506 -2.35018,0.467976 -0.74822,0.809702 -8.87545,20.794621 -18.06052,44.410931 -12.85583,33.05447 -36.67041,93.9104 -41.01932,104.82106 -0.27686,0.6946 -1.12761,1.26291 -1.89057,1.26291 -1.16868,0 -1.38718,-8.64716 -1.38718,-54.89716 0,-30.19345 -0.29671,-72.6937 -0.65937,-94.44502 l -0.65937,-39.547852 -4.56866,-2.41325 C 286.15855,25.223223 260.12595,12.276979 259.00085,12.715013 c -0.77031,0.299898 -1.40055,0.104892 -1.40055,-0.433346 0,-0.538238 0.74484,-0.978615 1.6552,-0.978615 1.82288,0 61.78287,30.77952 63.88442,32.794066 1.05506,1.01137 1.42459,19.247434 1.90182,93.850712 0.32578,50.92747 0.89328,92.59542 1.26113,92.59542 0.65299,0 5.62971,-12.5219 41.10068,-103.41319 10.98585,-28.150312 17.94238,-44.678542 19.0754,-45.32185 2.81292,-1.597125 4.11272,0.553477 9.61829,15.914119 2.7811,7.759351 5.79989,15.699171 6.70841,17.644041 0.90851,1.94487 10.4355,28.0625 21.17108,58.03917 10.73559,29.97668 20.03978,54.67909 20.676,54.89424 0.86984,0.29418 1.15676,-14.54018 1.15676,-59.80724 0,-36.41039 0.36572,-60.19843 0.92551,-60.19843 1.48864,0 48.2941,24.48336 49.09899,25.68307 0.40238,0.59977 0.73847,55.0092 0.74686,120.90982 0.0143,112.87323 -0.0857,119.90728 -1.72743,121.33646 -3.82529,3.33019 -47.38753,25.12847 -48.32223,24.18015 -0.52582,-0.53347 -7.32477,-16.35166 -15.1088,-35.15156 -36.43276,-87.99192 -41.73865,-100.40475 -42.77126,-100.06091 -0.60327,0.20088 -7.43596,20.78897 -15.18374,45.75132 -7.74778,24.96233 -16.15034,51.52378 -18.67235,59.02543 -2.52202,7.50165 -10.22031,31.59786 -17.1073,53.54714 -6.887,21.94928 -13.2723,40.65736 -14.18957,41.57351 -2.23696,2.23425 -62.16637,33.19043 -64.25478,33.19043 -0.90371,0 -1.64277,-0.34098 -1.64238,-0.75774 z"
           id="path903" /><path
           style="fill:#236acd;stroke-width:1.00304"
           d="m 244.6547,494.06202 c -3.01235,-1.59883 -16.67992,-8.73769 -30.37239,-15.86416 l -24.89539,-12.95722 -0.60522,-30.20829 c -0.33287,-16.61457 -0.66896,-58.50999 -0.74686,-93.10094 -0.0834,-37.04108 -0.51444,-62.89264 -1.04858,-62.89264 -0.88811,0 -5.91093,12.56912 -39.36478,98.50654 -21.17975,54.40728 -19.28443,50.17686 -22.31518,49.80856 -2.24953,-0.27338 -3.03439,-1.82029 -8.09904,-15.96272 -3.08447,-8.61301 -6.31833,-17.02395 -7.18636,-18.69098 C 109.15287,391.03313 99.910233,365.8003 89.481693,336.62721 79.053154,307.45412 70.21861,282.7896 69.849373,281.81716 c -0.369237,-0.97243 -1.071514,-1.76806 -1.560615,-1.76806 -0.511848,0 -0.889274,25.48839 -0.889274,60.05462 0,33.03004 -0.347569,60.27256 -0.772375,60.53893 -0.424805,0.26636 -11.627733,-5.19479 -24.895395,-12.13589 L 17.608694,375.88655 V 254.78468 133.68279 l 23.276973,-12.18918 c 12.802335,-6.70405 23.943321,-12.18918 24.757746,-12.18918 1.015085,0 9.550343,19.46136 27.140014,61.88231 30.677613,73.98508 31.181163,75.13934 32.255963,73.93624 0.46205,-0.5172 8.7992,-26.62784 18.52699,-58.02364 9.72779,-31.3958 18.10079,-57.61064 18.60666,-58.25518 0.50586,-0.64456 6.67551,-19.66784 13.71032,-42.273963 7.0348,-22.606127 13.17504,-41.482047 13.64496,-41.946491 0.46993,-0.464443 12.05734,-6.616249 25.74981,-13.670679 13.69247,-7.054432 27.24122,-14.134256 30.10834,-15.732945 2.86712,-1.598688 6.34003,-2.906706 7.71757,-2.906706 h 2.50463 V 254.79101 497.26865 l -2.73849,-0.14984 c -1.50618,-0.0824 -5.20314,-1.45797 -8.21548,-3.05679 z"
           id="path901" /><path
           style="fill:#277993;stroke-width:1.00304"
           d="m 255.60867,254.79101 c 0,-160.978207 0.3347,-242.477634 0.99582,-242.477634 0.66111,0 0.99581,81.499427 0.99581,242.477634 0,160.97821 -0.3347,242.47764 -0.99581,242.47764 -0.66112,0 -0.99582,-81.49943 -0.99582,-242.47764 z"
           id="path899" /><path
           style="fill:#2d8a56;stroke-width:1.00304"
           d="m 258.27514,496.60621 c -1.23537,-1.25336 -0.80048,-483.084473 0.43671,-483.860241 1.03147,-0.646769 13.28802,5.338633 49.76183,24.300837 l 14.52612,7.551912 0.66007,39.590588 c 0.36306,21.774824 0.66009,64.294304 0.66009,94.487754 0,46.25 0.2185,54.89716 1.38718,54.89716 0.76296,0 1.61371,-0.56831 1.89057,-1.26291 4.34891,-10.91066 28.16349,-71.76659 41.01932,-104.82106 9.18507,-23.61631 17.3123,-43.601229 18.06052,-44.410931 2.57613,-2.787824 0.72131,-7.467068 36.22681,91.390971 13.55919,37.75287 21.15166,57.58844 22.04315,57.58844 1.12884,0 1.44448,-10.3854 1.85779,-61.12457 0.3255,-39.95782 0.84275,-61.04942 1.49373,-60.90754 0.5477,0.11936 11.30251,5.59155 23.89958,12.16043 l 22.90376,11.94341 v 120.6971 120.69711 l -22.85045,11.8713 c -12.56774,6.52921 -23.44566,11.8713 -24.17318,11.8713 -0.7275,0 -1.764,-1.17751 -2.30331,-2.61669 -1.50684,-4.02104 -47.48726,-114.95204 -51.68101,-124.68407 -2.66259,-6.17883 -4.20052,-8.58775 -5.48269,-8.58775 -1.48107,0 -4.96504,10.15319 -20.62771,60.11425 -10.3651,33.06283 -24.54883,78.30007 -31.51939,100.52718 l -12.67373,40.41294 -30.3568,15.78938 c -31.30284,16.28143 -34.01436,17.54497 -35.15896,16.3837 z"
           id="path897" /></g></g><path
       style="fill:#000000;stroke-width:1.00304"
       d="m 251.0587,501.54441 c -3.56004,-1.91274 -17.5637,-9.2382 -31.11924,-16.27879 l -24.64644,-12.80107 v -26.34756 -26.34755 l -29.12761,7.8888 c -16.02019,4.33885 -30.75512,7.89484 -32.7443,7.90222 l -3.61667,0.0134 -5.6846,-16.00067 c -3.12652,-8.80037 -5.98828,-16.49922 -6.35946,-17.10855 -0.4674,-0.76729 -7.0543,0.26622 -21.426732,3.36197 l -20.751867,4.46982 -25.763194,-13.37711 -25.763193,-13.37712 -0.0045,-122.7543 -0.0045,-122.7543 24.804056,-12.88462 24.804058,-12.88461 6.298344,1.47909 c 21.897938,5.14246 88.955548,18.61355 89.511308,17.98178 0.36959,-0.42014 3.68309,-10.53879 7.36333,-22.48586 14.17733,-46.023514 18.56077,-59.441251 19.7368,-60.414321 0.67004,-0.554417 12.4212,-6.795878 26.11366,-13.869912 13.69247,-7.074035 27.24122,-14.167702 30.10835,-15.763705 4.29651,-2.391685 6.40212,-2.901824 11.97731,-2.901824 5.94584,0 7.72501,0.497363 14.70337,4.110285 4.36645,2.260657 18.58178,9.641587 31.58963,16.402067 l 23.65062,12.29178 v 26.349103 26.349107 l 29.12761,-7.886379 c 16.02019,-4.337505 30.76567,-7.890259 32.76775,-7.895009 l 3.64013,-0.0086 3.08163,8.587749 c 9.93472,27.685699 9.0807,25.792699 11.38973,25.246149 1.18138,-0.27963 10.58484,-2.33237 20.89657,-4.56163 l 18.74861,-4.05321 25.80758,13.4063 25.80758,13.4063 -0.006,122.7543 -0.006,122.7543 -24.94348,12.9833 c -18.33398,9.543 -25.52103,12.81405 -27.12313,12.34457 -7.94749,-2.32892 -92.82434,-19.61962 -93.3238,-19.01148 -0.34143,0.41573 -6.33697,19.16806 -13.32339,41.67186 -6.98644,22.50378 -12.77824,40.98869 -12.87068,41.07756 -0.0924,0.0889 -10.47475,5.48705 -23.07182,11.99597 -12.59707,6.50892 -26.59647,13.82516 -31.10979,16.2583 -7.65402,4.12632 -8.6923,4.41502 -15.43514,4.29187 -6.1784,-0.11283 -8.16992,-0.6375 -13.70193,-3.60974 z m 42.89658,-10.90288 c 13.37655,-6.94319 27.52917,-14.32384 31.45029,-16.40142 l 7.1293,-3.77742 3.72008,-12.14022 c 2.04604,-6.67712 7.86397,-25.32493 12.9287,-41.43959 18.25877,-58.09445 24.29743,-77.36429 35.32832,-112.73526 7.3594,-23.59817 11.66791,-35.95068 12.53945,-35.95068 0.73029,0 2.9563,3.90237 4.94671,8.67195 1.99042,4.76956 10.02075,24.12989 17.84519,43.02293 29.19401,70.49244 35.60442,85.88645 35.90852,86.23103 0.17159,0.19445 11.0901,-5.2613 24.26335,-12.12388 l 23.95135,-12.47741 0.005,-120.73366 0.005,-120.73365 -23.7927,-12.37647 c -13.08554,-6.80705 -24.06013,-12.37646 -24.38755,-12.37646 -0.32742,0 -0.63069,28.07436 -0.67393,62.38747 -0.0432,34.31312 -0.32154,61.76773 -0.61845,61.01026 -0.41734,-1.06475 -0.71198,-1.09464 -1.29855,-0.13171 -0.48746,0.80023 -1.19933,-0.15224 -1.9911,-2.66407 -1.7019,-5.39917 -36.1175,-101.59582 -40.79743,-114.03485 -2.09063,-5.55678 -5.70168,-15.44532 -8.02455,-21.974534 -3.20262,-9.002091 -4.64472,-11.871301 -5.96664,-11.871301 -1.35882,0 -4.32694,6.628149 -13.45979,30.057125 -32.51987,83.42499 -48.17524,122.86145 -48.22929,121.4914 -0.0532,-1.3471 -0.16704,-1.3471 -1.0251,0 -0.62702,0.98438 -0.97067,-31.76967 -0.98057,-93.46201 L 332.7156,51.131614 309.56288,39.103221 C 296.82889,32.487605 282.69399,25.102801 278.152,22.692546 c -12.28292,-6.518057 -14.62246,-6.297139 -32.38493,3.058041 -7.76972,4.092178 -21.29665,11.131637 -30.05983,15.643244 -8.76318,4.511607 -16.45204,8.55248 -17.08636,8.979717 -0.63434,0.427238 -5.25043,13.96049 -10.258,30.073894 -5.00758,16.113404 -12.18829,38.844658 -15.95714,50.513888 -3.76886,11.66924 -13.18152,41.67585 -20.91703,66.68135 -7.73552,25.00551 -14.73344,47.58065 -15.55092,50.16699 -1.01391,3.20779 -1.98433,4.62828 -3.05308,4.46914 -1.04008,-0.15488 -5.71341,-10.22602 -13.90261,-29.96052 -6.78473,-16.34998 -14.98395,-36.09226 -18.2205,-43.87175 -3.236545,-7.77949 -10.390408,-25.00628 -15.897472,-38.28174 -5.507064,-13.27546 -10.219677,-24.34705 -10.472472,-24.60352 -0.422953,-0.42912 -12.118675,5.41719 -38.180205,19.08506 l -10.207112,5.35307 V 260.81165 381.6239 l 23.753305,12.32529 c 13.064319,6.77891 24.043188,12.32529 24.397488,12.32529 0.354299,0 0.679558,-27.84704 0.722797,-61.88231 0.04324,-34.03527 0.321543,-61.26256 0.618453,-60.50509 0.395143,1.00809 0.732542,1.06088 1.258808,0.19695 0.395435,-0.64914 9.13987,22.37267 19.432078,51.1596 10.292212,28.78692 20.839742,58.02294 23.438972,64.96891 2.59923,6.94598 6.40624,17.31302 8.46002,23.03787 3.14479,8.76603 4.04213,10.3606 5.68554,10.10324 1.56734,-0.24545 4.54886,-6.96683 15.14915,-34.15143 7.25878,-18.61521 20.54898,-52.6864 29.53381,-75.71374 8.98483,-23.02736 16.50945,-40.98586 16.72138,-39.90778 0.37605,1.9129 0.40441,1.91144 1.17694,-0.0605 0.43537,-1.11136 0.82309,40.54097 0.86158,92.56071 l 0.07,94.58136 17.17782,8.88939 c 9.44781,4.88917 23.45147,12.21212 31.11925,16.27323 19.7682,10.46989 17.81293,10.6794 48.37356,-5.18334 z M 163.23739,426.93499 c 13.52285,-3.64001 26.26745,-7.06738 28.32132,-7.61636 l 3.73431,-0.99815 -0.0421,-65.88466 -0.0421,-65.88467 -2.49262,6.06194 c -2.40498,5.84879 -13.02523,32.97455 -38.76495,99.0117 -6.7143,17.22602 -13.14802,33.70692 -14.29715,36.62423 -1.14914,2.91731 -1.84508,5.3042 -1.54654,5.3042 0.29854,0 11.60696,-2.97821 25.12982,-6.61823 z M 96.70726,404.25384 c 10.10273,-2.22272 18.71684,-4.0413 19.14245,-4.0413 0.42562,0 0.77386,-0.48086 0.77386,-1.06859 0,-0.58772 -8.57383,-25.02492 -19.052974,-54.30488 -10.479139,-29.27997 -19.402964,-54.37292 -19.830723,-55.76211 -0.427758,-1.3892 -0.816259,24.86658 -0.863335,58.34618 -0.04708,33.47959 0.262641,60.87199 0.688262,60.87199 0.42562,0 9.039728,-1.81858 19.14246,-4.04129 z m 354.91745,-1.76807 c -2.80038,-6.58454 -11.82477,-28.2814 -21.11627,-50.76876 -4.93639,-11.94707 -11.72166,-28.31431 -15.07838,-36.37164 -3.35671,-8.05733 -8.61573,-20.78741 -11.68669,-28.28906 -3.07097,-7.50165 -5.87338,-13.9745 -6.2276,-14.38412 -0.58462,-0.67605 -35.92368,111.44355 -35.92216,113.9696 5.9e-4,0.97806 83.95658,19.33584 89.38848,19.54563 2.22966,0.0861 2.23658,0.0463 0.64262,-3.70165 z M 145.99279,208.75624 c 22.40607,-71.79923 23.17597,-74.41341 22.03767,-74.82885 -1.95781,-0.71452 -88.298705,-18.62607 -89.785183,-18.62607 -1.74314,0 -2.928332,-3.08673 19.978281,52.03166 9.699222,23.33847 20.447172,49.25327 23.884342,57.58844 3.43717,8.33517 7.27498,17.59298 8.52847,20.57291 l 2.27908,5.41807 1.17878,-3.90258 c 0.64834,-2.14642 6.00269,-19.36053 11.89856,-38.25358 z m 227.40876,-72.52345 c 9.93695,-25.44028 18.06718,-46.725598 18.06718,-47.300712 0,-0.575112 -0.7842,-0.798847 -1.74268,-0.497186 -1.39374,0.438652 -32.75053,8.89246 -51.28451,13.826328 l -3.73431,0.9941 0.03,65.88466 0.03,65.88467 10.28355,-26.26841 c 5.65596,-14.44762 18.41379,-47.08318 28.35074,-72.52345 z m 79.41117,-22.68095 c -0.41355,-0.41957 -38.62491,7.70663 -39.29412,8.35647 -0.19579,0.19013 8.43046,24.88501 19.16946,54.87752 10.73898,29.9925 19.63384,55.13858 19.76634,55.88016 0.1325,0.74159 0.36014,-25.66155 0.50587,-58.67364 0.14573,-33.01208 0.0794,-60.21031 -0.14755,-60.44051 z"
       id="path875" /></g></svg>
